<svg width="339" height="45" viewBox="0 0 339 45" fill="none" xmlns="http://www.w3.org/2000/svg">
<path d="M77.2617 9.69577C79.0989 9.69577 80.6039 9.70165 81.7766 9.71335C82.9494 9.72504 84.1541 9.7821 85.39 9.88297C86.6267 9.98384 87.5971 10.0796 88.302 10.1688C89.0069 10.2579 89.7289 10.448 90.4686 10.7396C91.2076 11.0313 91.7535 11.3017 92.1063 11.5517C92.4584 11.8017 92.8198 12.2117 93.1896 12.7826C93.5595 13.3542 93.8044 13.8864 93.9258 14.3798C94.0472 14.8739 94.1685 15.5903 94.2899 16.5303C94.4113 17.4703 94.4774 18.354 94.4894 19.1807C94.5008 20.0074 94.5065 21.1111 94.5065 22.4911C94.5065 23.8712 94.5008 24.9742 94.4894 25.801C94.4774 26.6284 94.4113 27.5114 94.2899 28.4514C94.1685 29.3914 94.05 30.1048 93.9343 30.593C93.8193 31.0806 93.5737 31.6128 93.1982 32.1902C92.8226 32.7669 92.4613 33.1777 92.1149 33.4211C91.7684 33.6652 91.2225 33.9328 90.4771 34.2244C89.7317 34.5161 89.0126 34.7061 88.319 34.7953C87.6262 34.8845 86.6558 34.9766 85.4078 35.0716C84.1598 35.1674 82.9522 35.2207 81.7852 35.2324C80.6181 35.2441 79.1103 35.2507 77.2617 35.2507L60 35.2858V9.69577H77.2617ZM86.9156 28.8973V16.1202H67.5909V28.8973H86.9156Z" fill="white"/>
<path d="M105.875 9.69577H98.2846V35.2865H105.875V9.69577Z" fill="white"/>
<path d="M126.621 19.6536C131.798 19.6536 135.213 19.7311 136.864 19.8854C139.314 20.1236 141.03 20.6528 142.012 21.4737C142.947 22.2704 143.508 23.5971 143.693 25.453C143.751 26.0363 143.779 26.7081 143.779 27.4697C143.779 28.4814 143.731 29.3527 143.633 30.0844C143.534 30.8161 143.341 31.4849 143.052 32.0916C142.763 32.6982 142.436 33.2011 142.073 33.5995C141.709 33.9986 141.169 34.3524 140.452 34.6616C139.736 34.9708 138.999 35.2061 138.242 35.3662C137.486 35.527 136.475 35.6579 135.21 35.7587C133.944 35.8603 132.676 35.9254 131.405 35.9554C130.134 35.9854 128.534 36 126.604 36C124.663 36 123.066 35.9854 121.813 35.9554C120.559 35.9254 119.293 35.8633 118.017 35.7683C116.74 35.6725 115.729 35.5417 114.983 35.3758C114.239 35.2091 113.505 34.9737 112.783 34.6703C112.061 34.367 111.521 34.0133 111.162 33.6091C110.804 33.2041 110.478 32.6924 110.183 32.074C109.888 31.4556 109.695 30.7714 109.602 30.0215C109.51 29.2722 109.463 28.3856 109.463 27.363H117.09V29.5932H136.137V25.3281H126.621C121.514 25.3281 118.147 25.2513 116.517 25.0964C114.126 24.8705 112.456 24.3471 111.508 23.5262C110.584 22.7287 110.035 21.4145 109.862 19.582C109.805 18.987 109.776 18.2969 109.776 17.5119C109.776 16.7027 109.805 15.9894 109.862 15.3702C109.92 14.7519 110.038 14.1722 110.218 13.6306C110.397 13.0889 110.593 12.6226 110.807 12.2293C111.021 11.8368 111.335 11.4742 111.751 11.1409C112.167 10.8083 112.595 10.5342 113.034 10.32C113.473 10.1059 114.051 9.91582 114.767 9.74916C115.483 9.5825 116.199 9.45167 116.916 9.35664C117.633 9.26162 118.531 9.18711 119.611 9.13375C120.692 9.07966 121.757 9.0446 122.809 9.02632C123.86 9.00878 125.137 9 126.639 9C128.118 9 129.395 9.00878 130.469 9.02632C131.544 9.0446 132.613 9.08619 133.676 9.15124C134.738 9.21703 135.634 9.29676 136.362 9.39251C137.09 9.48754 137.806 9.62127 138.511 9.79377C139.216 9.96628 139.788 10.1658 140.226 10.3917C140.666 10.6176 141.088 10.8975 141.492 11.2301C141.896 11.5634 142.208 11.9297 142.428 12.328C142.647 12.7264 142.844 13.1964 143.017 13.7373C143.19 14.2789 143.306 14.8622 143.363 15.4864C143.422 16.1114 143.45 16.8219 143.45 17.6194H135.824V15.3885H117.384V19.6536H126.621Z" fill="white"/>
<path d="M178.027 25.5422C178.396 25.733 178.671 25.8813 178.85 25.9888C179.028 26.0955 179.249 26.2534 179.508 26.4617C179.768 26.67 179.956 26.8806 180.071 27.0948C180.187 27.3089 180.32 27.5947 180.47 27.9514C180.621 28.3089 180.722 28.7218 180.773 29.1918C180.825 29.6618 180.875 30.2239 180.921 30.8781C180.967 31.5323 180.99 32.294 180.99 33.1623V35.2858H173.434V29.1831H154.993V35.2858H147.402V9.69577H170.124C171.44 9.69577 172.529 9.71041 173.391 9.74038C174.251 9.76962 175.089 9.85001 175.904 9.98085C176.718 10.1117 177.362 10.2638 177.836 10.4363C178.309 10.6088 178.76 10.8792 179.188 11.2483C179.615 11.6167 179.927 12.0158 180.124 12.4435C180.32 12.8718 180.493 13.4522 180.644 14.1838C180.794 14.9155 180.889 15.6765 180.93 16.4681C180.97 17.259 180.99 18.2495 180.99 19.4395C180.99 20.6887 180.881 21.7025 180.661 22.4817C180.441 23.2609 180.13 23.8742 179.725 24.32C179.32 24.7659 178.755 25.1738 178.027 25.5422ZM173.434 22.7762V16.1019H154.993V22.7762H173.434Z" fill="white"/>
<path d="M217.854 22.4911C217.854 26.1313 217.796 28.5106 217.681 29.6289C217.473 31.5565 216.964 32.9424 216.155 33.7874C215.277 34.715 213.723 35.3274 211.493 35.6249C209.645 35.8749 206.248 36 201.303 36C196.161 36 192.66 35.8633 190.8 35.5892C188.674 35.2683 187.183 34.6316 186.328 33.6799C185.554 32.8115 185.075 31.3898 184.889 29.4148C184.786 28.3322 184.734 26.0246 184.734 22.4911V9.69577H192.308V29.6289H210.263V9.69577H217.854V22.4911Z" fill="white"/>
<path d="M243.712 9.69577C244.995 9.69577 246.075 9.7163 246.953 9.75796C247.831 9.79963 248.666 9.88878 249.458 10.0255C250.249 10.1629 250.89 10.323 251.382 10.5079C251.873 10.6921 252.326 10.9742 252.742 11.3551C253.158 11.7359 253.473 12.143 253.687 12.5779C253.9 13.0121 254.083 13.586 254.232 14.3001C254.383 15.0135 254.478 15.7627 254.519 16.5485C254.559 17.3335 254.579 18.297 254.579 19.4395C254.579 20.367 254.567 21.1557 254.545 21.8041C254.521 22.4524 254.47 23.0978 254.389 23.7403C254.308 24.3821 254.213 24.915 254.103 25.3375C253.993 25.7593 253.825 26.173 253.6 26.5772C253.375 26.9822 253.129 27.3031 252.863 27.5413C252.598 27.7789 252.245 28.0055 251.806 28.2189C251.367 28.4331 250.908 28.5939 250.428 28.7014C249.949 28.8081 249.354 28.9031 248.643 28.9864C247.933 29.0697 247.193 29.1231 246.425 29.1473C245.656 29.1714 244.752 29.1831 243.712 29.1831H229.553V35.2858H221.961V9.69577H243.712ZM247.023 22.7762V16.1019H229.553V22.7762H247.023Z" fill="white"/>
<path d="M291.027 9.69577V15.406H277.387V35.2858H269.796V15.406H256.156V9.69577H291.027Z" fill="white"/>
<path d="M301.096 9.69577H293.505V35.2865H301.096V9.69577Z" fill="white"/>
<path d="M321.842 19.6536C327.018 19.6536 330.433 19.7311 332.085 19.8854C334.535 20.1236 336.251 20.6528 337.232 21.4737C338.168 22.2704 338.729 23.5971 338.913 25.453C338.972 26.0363 339 26.7081 339 27.4697C339 28.4814 338.951 29.3527 338.853 30.0844C338.754 30.8161 338.561 31.4849 338.272 32.0916C337.983 32.6982 337.657 33.2011 337.293 33.5995C336.929 33.9986 336.389 34.3524 335.673 34.6616C334.956 34.9708 334.22 35.2061 333.463 35.3662C332.706 35.527 331.695 35.6579 330.43 35.7587C329.164 35.8603 327.897 35.9254 326.626 35.9554C325.354 35.9854 323.754 36 321.825 36C319.884 36 318.286 35.9854 317.033 35.9554C315.779 35.9254 314.514 35.8633 313.237 35.7683C311.96 35.6725 310.949 35.5417 310.204 35.3758C309.459 35.2091 308.725 34.9737 308.003 34.6703C307.281 34.367 306.741 34.0133 306.383 33.6091C306.025 33.2041 305.698 32.6924 305.404 32.074C305.109 31.4556 304.915 30.7714 304.823 30.0215C304.731 29.2722 304.684 28.3856 304.684 27.363H312.31V29.5932H331.357V25.3281H321.842C316.735 25.3281 313.367 25.2513 311.738 25.0964C309.346 24.8705 307.677 24.3471 306.729 23.5262C305.805 22.7287 305.256 21.4145 305.083 19.582C305.025 18.987 304.996 18.2969 304.996 17.5119C304.996 16.7027 305.025 15.9894 305.083 15.3702C305.14 14.7519 305.259 14.1722 305.438 13.6306C305.617 13.0889 305.813 12.6226 306.028 12.2293C306.241 11.8368 306.556 11.4742 306.972 11.1409C307.388 10.8083 307.815 10.5342 308.255 10.32C308.693 10.1059 309.271 9.91582 309.987 9.74916C310.704 9.5825 311.42 9.45167 312.137 9.35664C312.853 9.26162 313.751 9.18711 314.832 9.13375C315.912 9.07966 316.978 9.0446 318.029 9.02632C319.08 9.00878 320.358 9 321.86 9C323.338 9 324.615 9.00878 325.69 9.02632C326.764 9.0446 327.833 9.08619 328.896 9.15124C329.959 9.21703 330.855 9.29676 331.582 9.39251C332.311 9.48754 333.027 9.62127 333.731 9.79377C334.436 9.96628 335.008 10.1658 335.447 10.3917C335.886 10.6176 336.308 10.8975 336.713 11.2301C337.117 11.5634 337.429 11.9297 337.648 12.328C337.868 12.7264 338.064 13.1964 338.238 13.7373C338.411 14.2789 338.527 14.8622 338.584 15.4864C338.642 16.1114 338.671 16.8219 338.671 17.6194H331.045V15.3885H312.605V19.6536H321.842Z" fill="white"/>
<path fill-rule="evenodd" clip-rule="evenodd" d="M29.9954 25.9848C27.0634 28.9612 24.1515 31.9573 21.1925 34.9081C18.2217 37.8723 15.2559 40.8476 12.164 43.6889C11.4179 44.3755 10.2037 44.8323 9.16624 44.9103C6.80521 45.088 4.41686 44.9084 2.04405 44.9852C0.528276 45.0342 -0.00550762 44.4123 0.0332414 42.9894C0.0955438 40.8105 -0.123651 38.6112 0.112262 36.4557C0.245224 35.241 0.757345 33.8204 1.60109 32.9653C6.89755 27.5999 12.3357 22.37 17.7214 17.0897C18.2571 16.563 18.7555 15.9982 19.7459 14.9464C17.1273 14.9464 15.1499 14.9449 13.1726 14.9468C9.50132 14.9498 5.82816 14.9052 2.15878 14.9824C0.55183 15.0162 -0.0176323 14.3938 0.0279548 12.8674C0.103933 10.2673 -0.017666 7.66124 0.0788267 5.06262C0.206471 1.55884 1.78302 0.0542932 5.32628 0.0468707C18.0686 0.0212631 30.8106 0.0676624 43.5526 0.000117703C45.4642 -0.00990266 46.0097 0.618421 45.9999 2.44101C45.9341 14.8889 45.9763 27.3372 45.9577 39.7851C45.9509 43.4254 44.4302 44.908 40.7201 44.9563C38.13 44.9897 35.5331 44.8865 32.946 44.9945C31.2468 45.065 30.6792 44.4605 30.7046 42.8108C30.7837 37.7487 30.7331 32.6843 30.7248 27.6203C30.7233 27.2102 30.6556 26.8001 30.6203 26.3901L29.9954 25.9848Z" fill="#15EE76"/>
</svg>
